<svg width="795" height="616" viewBox="0 0 795 616" fill="none" xmlns="http://www.w3.org/2000/svg">
<g id="undraw_ride_a_bicycle_re_6tjy 1" clip-path="url(#clip0_1_2)">
<g id="others">
<path id="Vector" d="M284.311 360.348L168.115 401.9L171.483 411.316L287.678 369.764L284.311 360.348Z" fill="#3F3D56"/>
<path id="Vector_2" d="M483.47 219.067C481.556 219.727 479.522 219.959 477.509 219.748C475.496 219.536 473.554 218.886 471.819 217.843C470.085 216.8 468.601 215.389 467.47 213.71C466.34 212.031 465.592 210.124 465.278 208.125L357.124 180.275L374.762 161.768L477.773 192.015C481.167 191.711 484.555 192.662 487.294 194.689C490.034 196.715 491.935 199.677 492.637 203.011C493.339 206.345 492.794 209.822 491.104 212.781C489.415 215.74 486.698 217.977 483.47 219.067H483.47Z" fill="#FFB6B6"/>
<path id="Vector_3" d="M319.168 89.7592C319.168 89.7592 301.582 91.7967 301.898 112.062C302.214 132.327 345.322 178.492 352.048 186.141C358.773 193.79 425.892 197.698 425.892 197.698L446.859 179.262L384.69 158.316L319.168 89.7592Z" fill="#6C63FF"/>
<path id="Vector_4" d="M283.496 184.877L279.529 203.485C279.529 203.485 272.308 218.972 273.71 223.11C275.098 227.225 337.592 249.595 337.592 249.595C337.592 249.595 342.947 221.692 351.881 202.87L283.496 184.877Z" fill="#FFB6B6"/>
<path id="Vector_5" d="M620.689 613.567C598.146 613.567 576.109 606.882 557.365 594.358C538.621 581.833 524.012 564.032 515.385 543.205C506.758 522.378 504.501 499.461 508.899 477.351C513.297 455.241 524.153 434.932 540.093 418.991C556.033 403.051 576.343 392.195 598.452 387.797C620.562 383.399 643.48 385.657 664.307 394.283C685.134 402.91 702.935 417.519 715.459 436.263C727.984 455.007 734.668 477.044 734.668 499.587C734.634 529.806 722.615 558.777 701.247 580.145C679.879 601.513 650.908 613.532 620.689 613.567ZM620.689 396.161C600.233 396.161 580.237 402.227 563.228 413.591C546.22 424.956 532.964 441.109 525.136 460.008C517.307 478.906 515.259 499.702 519.25 519.764C523.241 539.827 533.091 558.256 547.555 572.72C562.02 587.185 580.449 597.035 600.511 601.026C620.574 605.016 641.369 602.968 660.268 595.14C679.167 587.312 695.32 574.056 706.684 557.047C718.049 540.039 724.115 520.043 724.115 499.587C724.084 472.166 713.177 445.877 693.788 426.488C674.398 407.099 648.109 396.192 620.689 396.161V396.161Z" fill="#3F3D56"/>
<path id="Vector_6" d="M625.709 523.567C634.546 523.567 641.709 516.403 641.709 507.567C641.709 498.73 634.546 491.567 625.709 491.567C616.872 491.567 609.709 498.73 609.709 507.567C609.709 516.403 616.872 523.567 625.709 523.567Z" fill="#3F3D56"/>
<path id="Vector_7" d="M152.249 615.12C130.888 615.12 110.008 608.786 92.247 596.919C74.4865 585.052 60.6439 568.185 52.4696 548.45C44.2953 528.716 42.1566 507 46.3238 486.051C50.491 465.101 60.777 445.857 75.8811 430.753C90.9851 415.649 110.229 405.363 131.179 401.195C152.129 397.028 173.844 399.167 193.578 407.341C213.313 415.516 230.18 429.358 242.047 447.119C253.915 464.879 260.249 485.76 260.249 507.12C260.216 535.754 248.827 563.205 228.58 583.452C208.333 603.699 180.882 615.088 152.249 615.12V615.12ZM152.249 409.12C132.866 409.12 113.919 414.868 97.8027 425.636C81.6867 436.405 69.1258 451.71 61.7084 469.617C54.291 487.524 52.3503 507.229 56.1316 526.239C59.913 545.249 69.2466 562.711 82.9521 576.417C96.6577 590.122 114.12 599.456 133.13 603.237C152.14 607.019 171.844 605.078 189.752 597.661C207.659 590.243 222.964 577.682 233.733 561.566C244.501 545.45 250.249 526.503 250.249 507.12C250.219 481.138 239.885 456.228 221.513 437.856C203.14 419.484 178.231 409.15 152.249 409.12V409.12Z" fill="#3F3D56"/>
<path id="Vector_8" d="M152.248 523.12C161.085 523.12 168.248 515.957 168.248 507.12C168.248 498.283 161.085 491.12 152.248 491.12C143.412 491.12 136.248 498.283 136.248 507.12C136.248 515.957 143.412 523.12 152.248 523.12Z" fill="#3F3D56"/>
<path id="Vector_9" d="M369.248 523.673C379.495 523.673 387.802 515.367 387.802 505.12C387.802 494.873 379.495 486.567 369.248 486.567C359.002 486.567 350.695 494.873 350.695 505.12C350.695 515.367 359.002 523.673 369.248 523.673Z" fill="#3F3D56"/>
<path id="Vector_10" d="M156.357 505.986L149.061 499.147L279.296 360.214L511.708 290.657L627.053 493.091L618.365 498.042L506.957 302.518L284.748 369.021L156.357 505.986Z" fill="#3F3D56"/>
<path id="Vector_11" d="M353.492 499.678H255.219V509.678H353.492V499.678Z" fill="#3F3D56"/>
<path id="Vector_12" d="M287.022 312.334H277.022V364.617H287.022V312.334Z" fill="#3F3D56"/>
<path id="Vector_13" d="M481.467 194.03L471.951 197.103L504.574 298.124L514.09 295.051L481.467 194.03Z" fill="#3F3D56"/>
<path id="Vector_14" d="M286.024 358.039L277.394 363.094L359.394 503.094L368.024 498.039L286.024 358.039Z" fill="#3F3D56"/>
<path id="Vector_15" d="M555.888 378.43L379.896 498.442L385.53 506.703L561.522 386.692L555.888 378.43Z" fill="#3F3D56"/>
<path id="Vector_16" d="M301.209 318.567H261.209C258.424 318.567 255.754 317.46 253.784 315.491C251.815 313.522 250.709 310.851 250.709 308.067C250.709 305.282 251.815 302.611 253.784 300.642C255.754 298.673 258.424 297.567 261.209 297.567H301.209C303.994 297.567 306.665 298.673 308.634 300.642C310.603 302.611 311.709 305.282 311.709 308.067C311.709 310.851 310.603 313.522 308.634 315.491C306.665 317.46 303.994 318.567 301.209 318.567V318.567Z" fill="#6C63FF"/>
<path id="Vector_17" d="M496.209 205.567H456.209C453.424 205.567 450.754 204.46 448.784 202.491C446.815 200.522 445.709 197.851 445.709 195.067C445.709 192.282 446.815 189.611 448.784 187.642C450.754 185.673 453.424 184.567 456.209 184.567H496.209C498.994 184.567 501.665 185.673 503.634 187.642C505.603 189.611 506.709 192.282 506.709 195.067C506.709 197.851 505.603 200.522 503.634 202.491C501.665 204.46 498.994 205.567 496.209 205.567Z" fill="#6C63FF"/>
<path id="Vector_18" d="M794.67 614.121C794.671 614.277 794.64 614.432 794.58 614.577C794.521 614.721 794.433 614.853 794.323 614.963C794.212 615.074 794.081 615.162 793.936 615.221C793.791 615.281 793.636 615.311 793.48 615.311H1.19C0.874395 615.311 0.57171 615.185 0.348541 614.962C0.125373 614.739 0 614.436 0 614.121C0 613.805 0.125373 613.503 0.348541 613.279C0.57171 613.056 0.874395 612.931 1.19 612.931H793.48C793.636 612.93 793.791 612.961 793.936 613.02C794.081 613.08 794.212 613.168 794.323 613.278C794.433 613.389 794.521 613.52 794.58 613.665C794.64 613.809 794.671 613.964 794.67 614.121V614.121Z" fill="#CCCCCC"/>
<path id="Vector_19" d="M347.808 74.8749C363.907 72.1379 374.739 56.8684 372.002 40.7696C369.265 24.6708 353.995 13.8389 337.896 16.5759C321.797 19.3128 310.966 34.5823 313.702 50.6811C316.439 66.7799 331.709 77.6119 347.808 74.8749Z" fill="#FFB6B6"/>
<path id="Vector_20" d="M525.869 328.593L492.475 258.103L492.927 257.889C495.241 256.792 497.749 256.163 500.306 256.035C502.864 255.908 505.422 256.286 507.833 257.147C510.245 258.008 512.463 259.336 514.362 261.054C516.26 262.773 517.801 264.849 518.898 267.163L535.594 302.408C536.691 304.723 537.321 307.23 537.448 309.788C537.575 312.345 537.198 314.903 536.336 317.314C535.475 319.726 534.147 321.944 532.429 323.843C530.71 325.741 528.635 327.282 526.32 328.379L525.869 328.593Z" fill="#3F3D56"/>
<path id="Vector_21" d="M423.791 340.983C419.586 340.972 415.498 339.604 412.133 337.083C408.769 334.563 406.307 331.023 405.115 326.992L404.973 326.512L479.785 304.439L479.926 304.918C480.651 307.374 480.885 309.949 480.615 312.496C480.344 315.042 479.575 317.51 478.351 319.759C477.126 322.009 475.471 323.995 473.479 325.604C471.487 327.213 469.198 328.415 466.742 329.139L429.336 340.176C427.536 340.709 425.668 340.981 423.791 340.983V340.983Z" fill="#3F3D56"/>
<path id="Vector_22" d="M324.641 74.5894L343.994 84.7086C345.063 85.1354 345.972 85.885 346.595 86.8531C347.218 87.8211 347.523 88.9594 347.469 90.1093L352.51 110.281L370.247 147.825C370.247 147.825 374.869 167.806 366.049 186.671C357.229 205.537 337.709 252.567 337.709 252.567C324.978 283.06 220.476 259.512 247.709 233.567C250.949 230.479 269.162 204.403 275.826 202.904L292.176 109.339C293 104.399 294.907 99.7024 297.761 95.5864C300.614 91.4704 304.342 88.0368 308.679 85.5317C311.299 84.0509 313.727 83.1741 315.392 83.6215C319.185 84.5056 320.978 75.9146 324.641 74.5894Z" fill="#6C63FF"/>
<path id="Vector_23" d="M492.72 198.566C490.96 199.566 489.003 200.167 486.985 200.329C484.968 200.49 482.939 200.207 481.043 199.5C479.147 198.793 477.429 197.678 476.01 196.235C474.591 194.792 473.505 193.055 472.83 191.147L361.402 183.611L375.346 162.182L482.157 173.019C485.438 172.097 488.943 172.41 492.008 173.9C495.072 175.389 497.484 177.951 498.786 181.101C500.088 184.25 500.19 187.767 499.072 190.986C497.954 194.205 495.694 196.902 492.72 198.566V198.566Z" fill="#FFB6B6"/>
<path id="Vector_24" d="M307.484 101.595C307.484 101.595 290.571 106.824 294.599 126.687C298.628 146.551 349.474 184.024 357.489 190.309C365.503 196.594 432.2 188.122 432.2 188.122L449.428 166.153L384.472 156.968L307.484 101.595Z" fill="#6C63FF"/>
<path id="Vector_25" d="M534.367 303.522C540.324 301.319 542.437 292.185 539.086 283.12C535.734 274.054 528.188 268.491 522.231 270.693C516.274 272.895 514.161 282.029 517.512 291.095C520.864 300.16 528.41 305.724 534.367 303.522Z" fill="#6C63FF"/>
</g>
<g id="hair">
<path id="Vector_26" d="M374.391 35.9437C369.926 38.1431 364.87 34.9554 360.964 31.7853L362.362 32.9677C355.584 39.6989 352.482 49.3149 351.015 58.7644C349.546 68.2041 349.471 77.8432 347.596 87.2201C345.719 96.5871 341.724 106.02 334.139 111.824C323.979 119.597 309.851 119.25 297.26 117.028C297.092 116.996 296.936 116.972 296.768 116.94C300.049 107.142 301.317 96.7833 300.496 86.484C297.234 96.8471 291.597 106.305 284.033 114.104C275.678 111.897 267.515 109.017 259.624 105.493C254.519 103.207 249.014 100.065 247.548 94.6642C246.079 89.3046 249.304 83.6338 253.66 80.1952C258.015 76.7566 263.385 74.9307 268.361 72.4617C273.33 70.0042 278.236 66.5227 280.182 61.3229C284.67 49.3614 271.394 35.8252 276.393 24.061C278.858 18.2759 285.009 15.0797 290.796 12.6047C299.631 8.8363 308.71 5.66943 317.972 3.12576C326.103 0.891378 334.598 -0.86738 342.918 0.45692C351.237 1.78121 359.426 6.74898 362.496 14.6055C367.501 16.2398 372.815 18.0852 376.059 22.2504C379.302 26.4056 379.118 33.6185 374.391 35.9437Z" fill="#2F2E41"/>
</g>
<g id="cloud">
<path id="Vector_27" d="M591.846 171.519C589.122 161.351 583.853 152.312 576.688 145.516C569.523 138.72 560.774 134.462 551.516 133.266C551.306 133.232 551.108 133.277 550.9 133.261C550.63 133.167 550.356 133.095 550.078 133.045C506.027 126.547 455.178 150.593 436.819 198.256C432.34 191.285 426.441 185.663 419.632 181.876C412.823 178.089 405.308 176.251 397.737 176.521C387.975 177.263 378.651 181.421 371.034 188.429C363.416 195.436 357.876 204.953 355.167 215.682C354.879 216.996 354.965 218.38 355.412 219.634C355.859 220.888 356.645 221.947 357.655 222.657C360.564 225.471 364.01 227.468 367.718 228.487C375.718 230.421 383.746 232.193 391.803 233.803C407.524 236.943 423.328 239.482 439.214 241.419C471.46 245.363 503.906 246.763 536.322 245.609C547.117 245.225 557.529 244.815 567.421 239.377C574.617 235.32 580.765 229.197 585.261 221.609C589.497 214.315 592.281 206.051 593.419 197.397C594.557 188.743 594.019 179.91 591.846 171.519V171.519Z" fill="url(#paint0_linear_1_2)" fill-opacity="0.5"/>
</g>
<g id="leaf">
<path id="leaf_2" d="M754.18 551.395L755.324 525.676C767.248 519.302 780.548 515.935 794.069 515.868C775.46 531.082 777.786 560.409 765.17 580.867C761.186 587.218 755.824 592.591 749.482 596.588C743.139 600.585 735.978 603.103 728.53 603.957L712.958 613.491C710.821 601.579 711.292 589.345 714.339 577.633C717.385 565.92 722.935 555.007 730.605 545.646C734.96 540.437 739.954 535.797 745.468 531.836C749.198 541.67 754.18 551.395 754.18 551.395Z" fill="#F2F2F2"/>
</g>
<g id="back_wheel">
<path id="Vector_28" d="M251.512 503.525L46.7273 508.685L46.8505 513.576L251.635 508.416L251.512 503.525Z" fill="#3F3D56"/>
<path id="Vector_29" d="M145.499 406.163L147.972 610.998L152.864 610.939L150.391 406.104L145.499 406.163Z" fill="#3F3D56"/>
<path id="Vector_30" d="M71.7193 441.495L223.354 579.228L226.643 575.607L75.0088 437.873L71.7193 441.495Z" fill="#3F3D56"/>
<path id="Vector_31" d="M226.949 441.849L68.3185 571.464L71.4141 575.252L230.044 445.638L226.949 441.849Z" fill="#3F3D56"/>
</g>
<g id="front_wheel">
<path id="Vector_32" d="M722.785 494.421L518 499.581L518.123 504.472L722.908 499.312L722.785 494.421Z" fill="#3F3D56"/>
<path id="Vector_33" d="M616.771 397.059L619.245 601.894L624.137 601.835L621.663 397L616.771 397.059Z" fill="#3F3D56"/>
<path id="Vector_34" d="M542.992 432.391L694.626 570.124L697.916 566.503L546.282 428.77L542.992 432.391Z" fill="#3F3D56"/>
<path id="Vector_35" d="M698.221 432.745L539.591 562.36L542.687 566.149L701.317 436.534L698.221 432.745Z" fill="#3F3D56"/>
</g>
<g id="back_leg">
<path id="Vector_36" d="M309.242 462.575L319.986 471.566L360.55 433.48L344.693 420.211L309.242 462.575Z" fill="#FFB6B6"/>
<path id="Vector_37" d="M341.028 459.534L318.275 443.829L378.183 348.848C334.763 323.61 304.902 292.823 280.538 259.005C272.258 247.592 267.21 234.309 278.762 225.747C279.302 225.347 279.856 224.968 280.425 224.61C293.597 216.402 289.321 228.703 307.376 222.662L323.69 240.065L358.937 274.361L419.058 312.739C431.149 320.457 434.504 336.691 426.552 348.999C426.132 349.649 425.684 350.28 425.21 350.893L341.028 459.534Z" fill="#2F2E41"/>
<path id="Vector_38" d="M310.603 455.252L329.441 469.196L323.008 476.883L330.207 502.939C330.562 504.226 330.497 505.593 330.021 506.841C329.545 508.088 328.683 509.15 327.56 509.873C326.437 510.595 325.113 510.94 323.78 510.857C322.448 510.773 321.177 510.266 320.153 509.409L298.792 491.533L301.474 480.848L293.673 487.248L285.619 480.508L310.603 455.252Z" fill="#2F2E41"/>
<path id="Vector_39" d="M311.485 521.085L281.209 494.943C279.102 493.123 277.805 490.541 277.602 487.764C277.399 484.987 278.307 482.244 280.127 480.136C281.946 478.029 284.528 476.731 287.305 476.527C290.081 476.323 292.825 477.23 294.933 479.048L325.209 505.19C326.253 506.091 327.11 507.189 327.73 508.421C328.35 509.653 328.721 510.995 328.822 512.371C328.923 513.746 328.752 515.128 328.319 516.437C327.886 517.747 327.199 518.958 326.297 520.002C325.396 521.046 324.298 521.902 323.065 522.522C321.833 523.141 320.491 523.511 319.115 523.612C317.74 523.713 316.358 523.541 315.049 523.107C313.739 522.674 312.528 521.987 311.485 521.085V521.085Z" fill="#3F3D56"/>
</g>
<g id="front_leg">
<path id="Vector_40" d="M483.782 475.919L447.689 493.163C445.177 494.363 442.29 494.516 439.664 493.588C437.039 492.66 434.889 490.727 433.689 488.215C432.488 485.702 432.335 482.815 433.263 480.19C434.191 477.564 436.124 475.415 438.636 474.214L474.729 456.971C477.242 455.77 480.128 455.617 482.754 456.545C485.38 457.473 487.529 459.406 488.729 461.918C489.93 464.431 490.083 467.318 489.155 469.943C488.227 472.569 486.294 474.719 483.782 475.919V475.919Z" fill="#3F3D56"/>
<path id="Vector_41" d="M433.406 462.464L447.019 459.106L440.726 403.809L420.634 408.767L433.406 462.464Z" fill="#FFB6B6"/>
<path id="Vector_42" d="M426.959 446.596L448.204 436.697L451.888 446.02L478.221 452.13C479.522 452.432 480.692 453.141 481.561 454.155C482.429 455.169 482.951 456.434 483.05 457.765C483.149 459.097 482.82 460.425 482.111 461.556C481.402 462.687 480.349 463.562 479.108 464.053L453.204 474.291L445.094 466.835L446.995 476.745L437.229 480.605L426.959 446.596Z" fill="#2F2E41"/>
<path id="Vector_43" d="M447.782 412.637L418.756 430.043L387.798 320.712C337.578 320.283 291.143 314.66 253.23 297.342C240.385 291.526 234.672 276.144 240.468 262.986C240.739 262.371 241.033 261.767 241.35 261.175C248.73 247.522 263.038 239.504 275.733 225.315L338.709 248.567L334.196 265.525L405.433 269.101C419.759 269.82 430.712 282.264 429.897 296.894C429.854 297.667 429.778 298.437 429.669 299.204L447.782 412.637Z" fill="#2F2E41"/>
</g>
</g>
<defs>
<linearGradient id="paint0_linear_1_2" x1="569.133" y1="119.129" x2="366.622" y2="237.663" gradientUnits="userSpaceOnUse">
<stop stop-color="#F0F0F0"/>
<stop offset="1" stop-color="#F0F0F0" stop-opacity="0"/>
</linearGradient>
<clipPath id="clip0_1_2">
<rect width="794.67" height="615.311" fill="white"/>
</clipPath>
</defs>
</svg>
